<svg xmlns="http://www.w3.org/2000/svg" xmlns:xlink="http://www.w3.org/1999/xlink" width="1080" zoomAndPan="magnify" viewBox="0 0 810 809.999993" height="1080" preserveAspectRatio="xMidYMid meet" version="1.0"><path fill="#ffffff" d="M 351.5 49.710938 C 181.398438 68.566406 42.789062 205.820312 22.265625 375.652344 C 21.601562 380.984375 21.050781 386.328125 20.617188 391.683594 C 20.183594 397.039062 19.863281 402.402344 19.660156 407.769531 C 19.453125 413.136719 19.363281 418.507812 19.390625 423.882812 C 19.414062 429.253906 19.554688 434.625 19.8125 439.992188 C 20.066406 445.359375 20.4375 450.714844 20.921875 456.066406 C 21.40625 461.417969 22.007812 466.757812 22.71875 472.082031 C 23.433594 477.40625 24.261719 482.714844 25.203125 488.003906 C 26.144531 493.292969 27.199219 498.558594 28.367188 503.804688 C 29.535156 509.050781 30.8125 514.265625 32.203125 519.457031 C 33.59375 524.644531 35.09375 529.804688 36.707031 534.929688 C 38.316406 540.054688 40.039062 545.140625 41.867188 550.195312 C 43.699219 555.246094 45.636719 560.253906 47.679688 565.222656 C 49.726562 570.191406 51.875 575.117188 54.128906 579.992188 C 56.386719 584.867188 58.746094 589.695312 61.207031 594.46875 C 63.667969 599.246094 66.234375 603.964844 68.898438 608.628906 C 71.5625 613.296875 74.324219 617.902344 77.1875 622.449219 C 80.050781 626.996094 83.007812 631.480469 86.0625 635.898438 C 89.117188 640.320312 92.261719 644.671875 95.503906 648.957031 C 98.746094 653.242188 102.074219 657.457031 105.496094 661.601562 C 108.917969 665.742188 112.425781 669.8125 116.023438 673.804688 C 119.617188 677.796875 123.296875 681.707031 127.0625 685.542969 C 130.824219 689.378906 134.667969 693.128906 138.59375 696.800781 C 142.515625 700.46875 146.515625 704.054688 150.59375 707.550781 C 154.671875 711.050781 158.824219 714.460938 163.046875 717.78125 C 167.269531 721.101562 171.5625 724.328125 175.925781 727.464844 C 180.289062 730.601562 184.714844 733.644531 189.207031 736.589844 C 193.699219 739.539062 198.253906 742.386719 202.871094 745.136719 C 207.484375 747.890625 212.15625 750.542969 216.882812 753.09375 C 221.613281 755.644531 226.394531 758.09375 231.226562 760.441406 C 236.058594 762.785156 240.941406 765.027344 245.871094 767.164062 C 250.800781 769.304688 255.773438 771.332031 260.789062 773.257812 C 265.804688 775.183594 270.859375 777 275.953125 778.707031 C 294.726562 781.707031 300.730469 770.074219 300.730469 759.960938 L 300.730469 696.550781 C 196.824219 719.121094 174.707031 646.3125 174.707031 646.3125 C 157.5 602.789062 133.070312 591.160156 133.070312 591.160156 C 98.925781 567.898438 135.726562 568.667969 135.726562 568.667969 C 173.21875 571.324219 193.109375 607.304688 193.109375 607.304688 C 225.742188 664.3125 280.867188 647.425781 302.242188 638.425781 C 305.613281 614.046875 315.519531 597.53125 325.875 588.160156 C 242.472656 578.785156 155.191406 546.523438 155.191406 403.640625 C 155.191406 362.003906 169.449219 328.628906 193.824219 301.996094 C 190.082031 292.621094 176.9375 253.613281 197.570312 202.976562 C 197.570312 202.976562 229.089844 192.835938 300.730469 241.242188 C 316.015625 237.125 331.507812 234.03125 347.199219 231.953125 C 362.894531 229.878906 378.65625 228.839844 394.488281 228.839844 C 410.320312 228.839844 426.082031 229.878906 441.777344 231.953125 C 457.472656 234.03125 472.960938 237.125 488.25 241.242188 C 559.941406 192.835938 591.40625 202.976562 591.40625 202.976562 C 612.011719 253.613281 598.894531 292.621094 595.152344 301.996094 C 619.527344 328.546875 633.785156 362.003906 633.785156 403.640625 C 633.785156 546.894531 546 578.414062 462.386719 587.789062 C 475.875 599.417969 488.25 622.308594 488.25 657.171875 L 488.25 759.960938 C 488.25 770.074219 494.25 782.078125 513.394531 778.707031 C 518.832031 776.882812 524.222656 774.9375 529.570312 772.871094 C 534.917969 770.800781 540.21875 768.609375 545.464844 766.296875 C 550.710938 763.988281 555.90625 761.554688 561.039062 759.007812 C 566.175781 756.457031 571.253906 753.789062 576.265625 751.007812 C 581.28125 748.226562 586.226562 745.332031 591.109375 742.320312 C 595.992188 739.3125 600.800781 736.195312 605.539062 732.964844 C 610.277344 729.734375 614.941406 726.398438 619.527344 722.957031 C 624.109375 719.511719 628.617188 715.96875 633.039062 712.316406 C 637.460938 708.667969 641.800781 704.917969 646.050781 701.070312 C 650.300781 697.222656 654.460938 693.28125 658.535156 689.242188 C 662.605469 685.203125 666.582031 681.074219 670.460938 676.851562 C 674.34375 672.632812 678.125 668.324219 681.808594 663.929688 C 685.492188 659.535156 689.074219 655.058594 692.554688 650.5 C 696.035156 645.941406 699.40625 641.308594 702.671875 636.59375 C 705.9375 631.882812 709.097656 627.097656 712.144531 622.238281 C 715.191406 617.382812 718.125 612.457031 720.945312 607.464844 C 723.769531 602.472656 726.472656 597.417969 729.0625 592.300781 C 731.65625 587.1875 734.125 582.015625 736.480469 576.785156 C 738.832031 571.554688 741.0625 566.273438 743.175781 560.945312 C 745.285156 555.613281 747.273438 550.234375 749.140625 544.8125 C 751.003906 539.390625 752.742188 533.925781 754.359375 528.425781 C 755.972656 522.921875 757.460938 517.386719 758.820312 511.816406 C 760.183594 506.246094 761.414062 500.648438 762.519531 495.019531 C 763.621094 489.394531 764.597656 483.742188 765.441406 478.074219 C 766.289062 472.402344 767.003906 466.714844 767.589844 461.007812 C 768.171875 455.304688 768.625 449.589844 768.949219 443.863281 C 769.273438 438.140625 769.464844 432.410156 769.523438 426.675781 C 769.585938 420.941406 769.515625 415.210938 769.3125 409.480469 C 769.109375 403.75 768.777344 398.023438 768.3125 392.308594 C 767.847656 386.59375 767.25 380.894531 766.527344 375.203125 C 765.800781 369.515625 764.945312 363.847656 763.957031 358.199219 C 762.972656 352.550781 761.859375 346.925781 760.617188 341.328125 C 759.371094 335.730469 758.003906 330.164062 756.503906 324.628906 C 755.003906 319.09375 753.382812 313.597656 751.632812 308.136719 C 749.882812 302.675781 748.007812 297.257812 746.007812 291.882812 C 744.011719 286.507812 741.890625 281.183594 739.648438 275.90625 C 737.40625 270.625 735.042969 265.402344 732.5625 260.234375 C 730.078125 255.066406 727.480469 249.953125 724.765625 244.90625 C 722.046875 239.855469 719.21875 234.867188 716.273438 229.949219 C 713.328125 225.027344 710.273438 220.175781 707.105469 215.394531 C 703.941406 210.617188 700.667969 205.910156 697.285156 201.28125 C 693.902344 196.648438 690.414062 192.097656 686.824219 187.628906 C 683.234375 183.15625 679.542969 178.769531 675.75 174.46875 C 671.960938 170.167969 668.070312 165.953125 664.085938 161.832031 C 660.101562 157.707031 656.023438 153.675781 651.855469 149.742188 C 647.6875 145.804688 643.429688 141.964844 639.082031 138.222656 C 634.738281 134.480469 630.308594 130.839844 625.796875 127.304688 C 621.285156 123.765625 616.695312 120.332031 612.023438 117.003906 C 607.355469 113.671875 602.613281 110.453125 597.796875 107.34375 C 592.976562 104.230469 588.09375 101.234375 583.136719 98.347656 C 578.183594 95.457031 573.164062 92.6875 568.085938 90.03125 C 563.003906 87.371094 557.863281 84.832031 552.664062 82.410156 C 547.46875 79.988281 542.21875 77.6875 536.914062 75.507812 C 531.609375 73.324219 526.261719 71.265625 520.863281 69.332031 C 515.464844 67.394531 510.027344 65.582031 504.546875 63.898438 C 499.066406 62.210938 493.550781 60.648438 487.996094 59.214844 C 482.445312 57.78125 476.863281 56.476562 471.25 55.296875 C 465.640625 54.117188 460.003906 53.070312 454.34375 52.148438 C 448.683594 51.230469 443.003906 50.441406 437.308594 49.78125 C 431.613281 49.121094 425.90625 48.589844 420.183594 48.191406 C 414.464844 47.792969 408.738281 47.527344 403.003906 47.390625 C 397.273438 47.253906 391.539062 47.25 385.808594 47.378906 C 380.074219 47.503906 374.347656 47.761719 368.625 48.152344 C 362.90625 48.542969 357.195312 49.0625 351.5 49.710938 Z M 351.5 49.710938 " fill-opacity="1" fill-rule="nonzero"/></svg>