<svg xmlns="http://www.w3.org/2000/svg" xmlns:xlink="http://www.w3.org/1999/xlink" width="1080" zoomAndPan="magnify" viewBox="0 0 810 809.999993" height="1080" preserveAspectRatio="xMidYMid meet" version="1.0"><defs><clipPath id="7658796360"><path d="M 29.1875 29.1875 L 780.6875 29.1875 L 780.6875 780.6875 L 29.1875 780.6875 Z M 29.1875 29.1875 " clip-rule="nonzero"/></clipPath></defs><g clip-path="url(#7658796360)"><path fill="#2197bd" d="M 780.6875 666.421875 C 780.6875 729.488281 729.5625 780.613281 666.492188 780.613281 L 143.40625 780.613281 C 80.335938 780.613281 29.214844 729.488281 29.214844 666.421875 L 29.214844 143.332031 C 29.214844 80.265625 80.339844 29.140625 143.40625 29.140625 L 666.492188 29.140625 C 729.5625 29.140625 780.691406 80.265625 780.691406 143.332031 L 780.691406 666.421875 Z M 780.6875 666.421875 " fill-opacity="1" fill-rule="nonzero"/></g><path fill="#ffffff" d="M 326.363281 297.246094 C 326.363281 299.085938 326.273438 300.917969 326.09375 302.75 C 325.914062 304.578125 325.644531 306.394531 325.285156 308.199219 C 324.925781 310 324.480469 311.78125 323.945312 313.542969 C 323.414062 315.300781 322.792969 317.03125 322.089844 318.730469 C 321.386719 320.425781 320.601562 322.085938 319.734375 323.707031 C 318.867188 325.332031 317.925781 326.90625 316.902344 328.433594 C 315.882812 329.964844 314.789062 331.4375 313.621094 332.859375 C 312.453125 334.28125 311.222656 335.640625 309.921875 336.941406 C 308.621094 338.242188 307.261719 339.472656 305.839844 340.640625 C 304.417969 341.808594 302.941406 342.902344 301.414062 343.921875 C 299.886719 344.945312 298.3125 345.886719 296.6875 346.753906 C 295.066406 347.621094 293.40625 348.40625 291.707031 349.109375 C 290.011719 349.8125 288.28125 350.433594 286.523438 350.964844 C 284.761719 351.5 282.980469 351.945312 281.179688 352.304688 C 279.375 352.664062 277.558594 352.933594 275.730469 353.113281 C 273.898438 353.292969 272.066406 353.382812 270.226562 353.382812 C 268.386719 353.382812 266.554688 353.292969 264.722656 353.113281 C 262.894531 352.933594 261.078125 352.664062 259.273438 352.304688 C 257.472656 351.945312 255.691406 351.5 253.929688 350.964844 C 252.171875 350.433594 250.441406 349.8125 248.742188 349.109375 C 247.042969 348.40625 245.382812 347.621094 243.761719 346.753906 C 242.140625 345.886719 240.566406 344.945312 239.039062 343.921875 C 237.507812 342.902344 236.035156 341.808594 234.613281 340.640625 C 233.191406 339.472656 231.832031 338.242188 230.53125 336.941406 C 229.230469 335.640625 227.996094 334.28125 226.832031 332.859375 C 225.664062 331.4375 224.570312 329.964844 223.550781 328.433594 C 222.527344 326.90625 221.585938 325.332031 220.71875 323.707031 C 219.851562 322.085938 219.066406 320.425781 218.363281 318.730469 C 217.660156 317.03125 217.039062 315.300781 216.507812 313.542969 C 215.972656 311.78125 215.527344 310 215.167969 308.199219 C 214.808594 306.394531 214.539062 304.578125 214.359375 302.75 C 214.179688 300.917969 214.089844 299.085938 214.089844 297.246094 C 214.089844 295.40625 214.179688 293.574219 214.359375 291.742188 C 214.539062 289.914062 214.808594 288.097656 215.167969 286.292969 C 215.527344 284.492188 215.972656 282.710938 216.507812 280.949219 C 217.039062 279.191406 217.660156 277.460938 218.363281 275.761719 C 219.066406 274.066406 219.851562 272.40625 220.71875 270.78125 C 221.585938 269.160156 222.527344 267.585938 223.550781 266.058594 C 224.570312 264.527344 225.664062 263.054688 226.832031 261.632812 C 227.996094 260.210938 229.230469 258.851562 230.53125 257.550781 C 231.832031 256.25 233.191406 255.019531 234.613281 253.851562 C 236.035156 252.683594 237.507812 251.589844 239.039062 250.570312 C 240.566406 249.546875 242.140625 248.605469 243.761719 247.738281 C 245.382812 246.871094 247.042969 246.085938 248.742188 245.382812 C 250.441406 244.679688 252.171875 244.058594 253.929688 243.527344 C 255.691406 242.992188 257.472656 242.546875 259.273438 242.1875 C 261.078125 241.828125 262.894531 241.558594 264.722656 241.378906 C 266.554688 241.199219 268.386719 241.109375 270.226562 241.109375 C 272.066406 241.109375 273.898438 241.199219 275.730469 241.378906 C 277.558594 241.558594 279.375 241.828125 281.179688 242.1875 C 282.980469 242.546875 284.761719 242.992188 286.523438 243.527344 C 288.28125 244.058594 290.011719 244.679688 291.707031 245.382812 C 293.40625 246.085938 295.066406 246.871094 296.6875 247.738281 C 298.308594 248.605469 299.886719 249.546875 301.414062 250.570312 C 302.941406 251.589844 304.417969 252.683594 305.839844 253.851562 C 307.261719 255.019531 308.621094 256.25 309.921875 257.550781 C 311.222656 258.851562 312.453125 260.210938 313.621094 261.632812 C 314.789062 263.054688 315.882812 264.527344 316.902344 266.058594 C 317.925781 267.585938 318.867188 269.160156 319.734375 270.78125 C 320.601562 272.40625 321.386719 274.066406 322.089844 275.761719 C 322.792969 277.460938 323.414062 279.191406 323.945312 280.949219 C 324.480469 282.710938 324.925781 284.492188 325.285156 286.292969 C 325.644531 288.097656 325.914062 289.914062 326.09375 291.742188 C 326.273438 293.574219 326.363281 295.40625 326.363281 297.246094 Z M 326.363281 297.246094 " fill-opacity="1" fill-rule="nonzero"/><path fill="#ffffff" d="M 221.832031 394.769531 L 318.273438 394.769531 L 318.273438 705.023438 L 221.832031 705.023438 Z M 221.832031 394.769531 " fill-opacity="1" fill-rule="nonzero"/><path fill="#ffffff" d="M 378.929688 394.769531 L 470.722656 394.769531 L 470.722656 705.023438 L 378.929688 705.023438 Z M 378.929688 394.769531 " fill-opacity="1" fill-rule="nonzero"/><path fill="#ffffff" d="M 382.898438 559.957031 L 474.6875 559.957031 L 474.6875 705.023438 L 382.898438 705.023438 Z M 382.898438 559.957031 " fill-opacity="1" fill-rule="nonzero"/><path fill="#ffffff" d="M 474.6875 559.957031 C 474.6875 559.957031 473.253906 519.714844 483.867188 498.792969 C 483.867188 498.792969 494.480469 473.027344 527.839844 472.871094 C 527.839844 472.871094 566.964844 466.042969 578.183594 504.863281 C 578.183594 504.863281 582.429688 526.390625 582.429688 535.492188 C 582.429688 544.59375 582.734375 705.023438 582.734375 705.023438 L 678.871094 705.023438 L 678.871094 527.304688 C 678.871094 527.304688 685.847656 426.917969 625.59375 399.417969 C 625.59375 399.417969 526.523438 354.941406 472.75 436.625 C 472.75 436.625 461.019531 444.707031 459.402344 422.0625 C 457.78125 399.417969 444.035156 456.839844 443.628906 458.054688 C 443.226562 459.269531 459.402344 572.492188 459.402344 572.492188 Z M 474.6875 559.957031 " fill-opacity="1" fill-rule="nonzero"/></svg>